<?xml version="1.0" encoding="iso-8859-1"?>
<!-- Generator: Adobe Illustrator 19.0.0, SVG Export Plug-In . SVG Version: 6.00 Build 0)  -->
<svg xmlns="http://www.w3.org/2000/svg" xmlns:xlink="http://www.w3.org/1999/xlink" version="1.1" id="Capa_1" x="0px" y="0px" viewBox="0 0 512.001 512.001" style="enable-background:new 0 0 512.001 512.001;" xml:space="preserve" width="512px" height="512px">
<g>
	<g>
		<path d="M433.098,496.893c0,0-116.598-196.7-116.598-196.893v-40c0-5.523-4.478-10-10-10h-40v-20.687    c3.274,0.438,6.608,0.687,10,0.687c13.592,0,26.338-3.652,37.344-10H381.5c5.522,0,10-4.477,10-10V70c0-16.542-13.458-30-30-30    h-25V30c0-16.542-13.458-30-30-30h-60c-16.542,0-30,13.458-30,30v10h-65c-16.542,0-30,13.458-30,30v140c0,5.523,4.477,10,10,10    h107.656c2.371,1.367,4.819,2.612,7.344,3.719V250h-40c-5.523,0-10,4.477-10,10v38.937L78.903,496.893    c-1.836,3.091-1.872,6.929-0.094,10.053C80.587,510.07,83.905,512,87.5,512h48c3.528,0,6.795-1.859,8.597-4.893l82.403-138.71V462    c0,5.523,4.477,10,10,10h40c5.522,0,10-4.477,10-10v-91.92l81.402,137.028c1.803,3.033,5.069,4.893,8.598,4.893h48    c3.595,0,6.913-1.93,8.691-5.054C434.97,503.822,434.933,499.983,433.098,496.893z M236.5,30c0-5.514,4.486-10,10-10h60    c5.514,0,10,4.486,10,10v10h-80V30z M181.5,200v-70c0-5.51-4.49-10-10-10s-10,4.49-10,10v70h-20V70c0-5.514,4.486-10,10-10h210    c5.514,0,10,4.486,10,10v130h-35.041c9.438-12.544,15.041-28.129,15.041-45c0-41.355-33.645-75-75-75c-41.355,0-75,33.645-75,75    c0,16.871,5.603,32.456,15.041,45H181.5z M221.5,155c0-30.327,24.673-55,55-55c30.327,0,55,24.673,55,55c0,30.327-24.673,55-55,55    C246.173,210,221.5,185.327,221.5,155z M216.5,270h80v20h-80V270z M129.809,492h-24.737l11.881-20h24.737L129.809,492z     M153.572,452h-24.737l84.356-142h24.737L153.572,452z M266.5,452h-20v-20h20V452z M266.5,412h-20v-77.27l9.5-15.992l10.5,17.675    V412z M358.427,452l-84.355-142h24.737l84.355,142H358.427z M382.19,492l-11.881-20h24.737l11.881,20H382.19z" fill="#FFFFFF"/>
	</g>
</g>
<g>
	<g>
		<path d="M171.5,80c-5.51,0-10,4.49-10,10s4.49,10,10,10s10-4.49,10-10S177.01,80,171.5,80z" fill="#FFFFFF"/>
	</g>
</g>
<g>
	<g>
		<path d="M276.5,120c-5.522,0-10,4.477-10,10s4.478,10,10,10c8.271,0,15,6.729,15,15c0,5.523,4.478,10,10,10    c5.522,0,10-4.477,10-10C311.5,135.701,295.799,120,276.5,120z" fill="#FFFFFF"/>
	</g>
</g>
<g>
</g>
<g>
</g>
<g>
</g>
<g>
</g>
<g>
</g>
<g>
</g>
<g>
</g>
<g>
</g>
<g>
</g>
<g>
</g>
<g>
</g>
<g>
</g>
<g>
</g>
<g>
</g>
<g>
</g>
</svg>
