<?xml version="1.0" encoding="iso-8859-1"?>
<!-- Generator: Adobe Illustrator 19.0.0, SVG Export Plug-In . SVG Version: 6.00 Build 0)  -->
<svg xmlns="http://www.w3.org/2000/svg" xmlns:xlink="http://www.w3.org/1999/xlink" version="1.1" id="Capa_1" x="0px" y="0px" viewBox="0 0 511.999 511.999" style="enable-background:new 0 0 511.999 511.999;" xml:space="preserve" width="512px" height="512px">
<g>
	<g>
		<path d="M378.952,0h-27.531c-4.142,0-7.5,3.358-7.5,7.5s3.358,7.5,7.5,7.5h27.531c10.412,0,18.883,8.471,18.883,18.883V61.22    H114.163V33.883c0-10.412,8.471-18.883,18.883-18.883h184.198c4.142,0,7.5-3.358,7.5-7.5s-3.358-7.5-7.5-7.5H133.046    c-18.683,0-33.883,15.2-33.883,33.883v90.695c0,4.142,3.358,7.5,7.5,7.5c4.142,0,7.5-3.358,7.5-7.5V76.22h283.673v143.86h-61.689    c-13.756-30.573-44.505-51.914-80.147-51.914c-35.642,0-66.391,21.34-80.147,51.914h-61.689v-61.325c0-4.142-3.358-7.5-7.5-7.5    c-4.142,0-7.5,3.358-7.5,7.5v319.361c0,18.683,15.2,33.883,33.883,33.883h245.906c18.683,0,33.883-15.2,33.883-33.883V33.883    C412.835,15.2,397.635,0,378.952,0z M114.163,235.08h56.527c-1.645,6.707-2.524,13.712-2.524,20.92    c0,41.596,29.544,77.793,70.25,86.069c0.504,0.103,1.007,0.152,1.502,0.152c3.492,0,6.619-2.452,7.342-6.007    c0.825-4.059-1.796-8.019-5.855-8.844c-33.746-6.86-58.239-36.876-58.239-71.37c0-40.161,32.673-72.833,72.833-72.833    c40.16,0,72.833,32.673,72.833,72.833c0,16.809-5.564,32.594-16.091,45.649c-10.228,12.684-24.553,21.671-40.336,25.305    c-4.037,0.929-6.556,4.955-5.626,8.991c0.929,4.037,4.956,6.554,8.991,5.626c19.043-4.384,36.32-15.219,48.647-30.507    c12.52-15.526,19.415-35.083,19.415-55.065c0-7.207-0.879-14.213-2.524-20.92h56.527V426.5H114.163V235.08z M397.836,478.117    C397.835,488.529,389.364,497,378.952,497H133.046c-10.412,0-18.883-8.471-18.883-18.883V441.5h283.673V478.117z" fill="#FFFFFF"/>
	</g>
</g>
<g>
	<g>
		<path d="M270.499,448.175h-29c-11.028,0-20,8.972-20,20s8.972,20,20,20h29c11.028,0,20-8.972,20-20    S281.527,448.175,270.499,448.175z M270.499,473.175h-29c-2.757,0-5-2.243-5-5c0-2.757,2.243-5,5-5h29c2.757,0,5,2.243,5,5    C275.499,470.932,273.256,473.175,270.499,473.175z" fill="#FFFFFF"/>
	</g>
</g>
<g>
	<g>
		<path d="M169.666,460.675h-14c-4.142,0-7.5,3.358-7.5,7.5c0,4.142,3.358,7.5,7.5,7.5h14c4.142,0,7.5-3.358,7.5-7.5    C177.166,464.033,173.808,460.675,169.666,460.675z" fill="#FFFFFF"/>
	</g>
</g>
<g>
	<g>
		<path d="M356.332,460.675h-14c-4.142,0-7.5,3.358-7.5,7.5c0,4.142,3.358,7.5,7.5,7.5h14c4.142,0,7.5-3.358,7.5-7.5    C363.832,464.033,360.475,460.675,356.332,460.675z" fill="#FFFFFF"/>
	</g>
</g>
<g>
	<g>
		<path d="M212.092,40.167h-0.093c-4.142,0-7.454,3.358-7.454,7.5c0,4.142,3.404,7.5,7.546,7.5c4.142,0,7.5-3.358,7.5-7.5    C219.591,43.525,216.234,40.167,212.092,40.167z" fill="#FFFFFF"/>
	</g>
</g>
<g>
	<g>
		<path d="M212.092,21.5h-0.093c-4.142,0-7.454,3.358-7.454,7.5c0,4.142,3.404,7.5,7.546,7.5c4.142,0,7.5-3.358,7.5-7.5    C219.591,24.858,216.234,21.5,212.092,21.5z" fill="#FFFFFF"/>
	</g>
</g>
<g>
	<g>
		<path d="M299.999,29.833h-64c-4.142,0-7.5,3.358-7.5,7.5c0,4.142,3.358,7.5,7.5,7.5h64c4.142,0,7.5-3.358,7.5-7.5    C307.499,33.191,304.141,29.833,299.999,29.833z" fill="#FFFFFF"/>
	</g>
</g>
<g>
	<g>
		<path d="M255.999,195.766c-33.213,0-60.234,27.021-60.234,60.234s27.021,60.234,60.234,60.234s60.234-27.021,60.234-60.234    S289.212,195.766,255.999,195.766z M255.999,301.234c-24.942,0-45.234-20.292-45.234-45.234c0-24.942,20.292-45.234,45.234-45.234    c24.942,0,45.234,20.292,45.234,45.234S280.941,301.234,255.999,301.234z" fill="#FFFFFF"/>
	</g>
</g>
<g>
	<g>
		<path d="M364.999,103.572h-46c-4.142,0-7.5,3.358-7.5,7.5c0,4.142,3.358,7.5,7.5,7.5h46c4.142,0,7.5-3.358,7.5-7.5    C372.499,106.93,369.141,103.572,364.999,103.572z" fill="#FFFFFF"/>
	</g>
</g>
<g>
	<g>
		<path d="M364.999,125.242h-46c-4.142,0-7.5,3.358-7.5,7.5c0,4.142,3.358,7.5,7.5,7.5h46c4.142,0,7.5-3.358,7.5-7.5    C372.499,128.6,369.141,125.242,364.999,125.242z" fill="#FFFFFF"/>
	</g>
</g>
<g>
	<g>
		<path d="M341.999,340.833c-12.654,0-22.948,10.294-22.948,22.948s10.294,22.949,22.948,22.949s22.948-10.294,22.948-22.948    S354.653,340.833,341.999,340.833z M341.999,371.729c-4.383,0-7.948-3.565-7.948-7.948s3.565-7.948,7.948-7.948    s7.948,3.565,7.948,7.948S346.382,371.729,341.999,371.729z" fill="#FFFFFF"/>
	</g>
</g>
<g>
</g>
<g>
</g>
<g>
</g>
<g>
</g>
<g>
</g>
<g>
</g>
<g>
</g>
<g>
</g>
<g>
</g>
<g>
</g>
<g>
</g>
<g>
</g>
<g>
</g>
<g>
</g>
<g>
</g>
</svg>
